<svg width="61" height="61" viewBox="0 0 61 61" fill="none" xmlns="http://www.w3.org/2000/svg">
<g clip-path="url(#clip0_121_2)">
<path d="M13.3875 49.2158C12.7741 49.897 12.3163 50.6806 12.06 51.4735C11.8806 52.032 11.7944 52.5832 11.7944 53.0995C11.7944 53.4145 11.8256 53.7147 11.8933 53.9986C11.9447 54.2092 12.0142 54.4106 12.1076 54.5955C12.1772 54.7365 12.2614 54.8702 12.3602 54.991C12.5086 55.1704 12.6916 55.3261 12.9096 55.4341C13.1257 55.544 13.3747 55.6026 13.6274 55.6008V54.4563C13.5743 54.4563 13.534 54.4489 13.4955 54.438C13.4278 54.4197 13.3728 54.3886 13.3106 54.3336C13.2667 54.2915 13.2191 54.2366 13.1751 54.1615C13.1092 54.0534 13.0469 53.9033 13.0049 53.7239C12.9628 53.5426 12.9389 53.332 12.9389 53.0995C12.9389 52.7131 13.0066 52.2737 13.1495 51.8232C13.2832 51.4094 13.4955 50.9809 13.7738 50.5745C14.1895 49.9629 14.7572 49.4045 15.4126 49.0052C15.7385 48.8056 16.0901 48.6445 16.4545 48.5346C16.8207 48.4247 17.2035 48.3661 17.599 48.3661C18.1263 48.3661 18.6317 48.4722 19.1041 48.6627C19.8109 48.9446 20.4499 49.4189 20.9608 49.9847C21.4699 50.5487 21.8489 51.2041 22.0467 51.8231C22.1913 52.2736 22.2592 52.713 22.2592 53.0994C22.2592 53.3356 22.2335 53.5499 22.1896 53.7311C22.1584 53.8666 22.1144 53.9876 22.0669 54.0827C22.0302 54.1559 21.9917 54.2145 21.9515 54.264C21.8929 54.3354 21.8344 54.3812 21.7776 54.4105C21.719 54.4379 21.6586 54.4544 21.5707 54.4563V55.6008C21.7208 55.6026 21.8692 55.5806 22.0101 55.5422C22.2573 55.4744 22.4789 55.3462 22.6602 55.1796C22.7956 55.055 22.9092 54.9123 23.0026 54.7567C23.1454 54.5223 23.2444 54.2622 23.3083 53.9839C23.3723 53.7056 23.4036 53.409 23.4036 53.0995C23.4036 52.5832 23.3176 52.0302 23.1381 51.4735C22.9678 50.9443 22.7078 50.4207 22.3708 49.9281C21.8654 49.1901 21.1916 48.5199 20.3823 48.0256C19.9776 47.7802 19.5399 47.5788 19.0731 47.4397C18.6062 47.2968 18.1118 47.22 17.5991 47.22C16.9161 47.22 16.2642 47.3592 15.6691 47.599C14.7736 47.9578 14.0008 48.5365 13.3875 49.2158Z" fill="black"/>
<path d="M19.8386 53.9345C19.6518 54.0829 19.542 54.3062 19.542 54.5461V55.4708C19.542 55.7088 19.6519 55.9341 19.8386 56.0824C20.0254 56.2289 20.2708 56.2839 20.5014 56.2289L21.1185 56.0824V53.9327L20.5014 53.7863C20.2707 53.7313 20.0254 53.7863 19.8386 53.9345Z" fill="black"/>
<path d="M14.697 53.7863L14.0781 53.9328V56.0824L14.697 56.2289C14.9277 56.2839 15.1731 56.2289 15.3598 56.0824C15.5466 55.9341 15.6564 55.7089 15.6564 55.4708V54.5461C15.6564 54.3062 15.5465 54.0829 15.3598 53.9345C15.1731 53.7862 14.9277 53.7313 14.697 53.7863Z" fill="black"/>
<path d="M53.5718 51.2959C53.3356 50.4134 53.0024 49.6224 52.5923 48.9192C51.8726 47.6833 50.9205 46.722 49.8695 45.9603C49.0804 45.389 48.2381 44.9221 47.3812 44.5211C46.0976 43.9205 44.7848 43.459 43.5726 43.0104C42.3604 42.5636 41.2526 42.126 40.3902 41.6169C40.0752 41.4301 39.7915 41.2361 39.5461 41.0329C39.1799 40.7271 38.8942 40.4011 38.6874 40.0368C38.4806 39.6725 38.3413 39.2623 38.2882 38.7496C38.2498 38.3834 38.2333 38.0391 38.2333 37.7096C38.2333 36.7391 38.3761 35.8987 38.5592 35.0399C39.1012 34.4283 39.5974 33.6995 40.0661 32.828C40.5367 31.951 40.9834 30.9273 41.4284 29.7151C41.7141 29.5852 42.0016 29.4294 42.2816 29.239C42.9225 28.8106 43.5304 28.21 44.0376 27.4098C44.543 26.6097 44.9494 25.6153 45.2277 24.3886C45.3046 24.0481 45.3413 23.7093 45.3413 23.376C45.3432 22.6801 45.1783 22.0173 44.9018 21.4241C44.7095 21.0121 44.466 20.635 44.1822 20.2926C44.3268 19.7578 44.5026 19.0383 44.6601 18.196C44.8762 17.026 45.0556 15.6197 45.0556 14.142C45.0556 13.188 44.9805 12.2029 44.7864 11.2306C44.6418 10.5018 44.4275 9.77851 44.1272 9.0864C43.675 8.04448 43.0176 7.06491 42.1039 6.25562C41.2579 5.50667 40.1977 4.90983 38.9178 4.5271C38.4656 3.98511 38.0115 3.52362 37.5463 3.13187C37.1434 2.79495 36.7315 2.51112 36.3104 2.27862C35.6768 1.92706 35.0213 1.69456 34.3493 1.55347C33.6774 1.41237 32.9925 1.36116 32.282 1.36116C31.3025 1.36116 30.2716 1.45819 29.1326 1.56987C28.7023 1.61382 28.3416 1.6669 28.0285 1.72187C27.5616 1.80612 27.2118 1.89214 26.9317 1.94897C26.7908 1.9764 26.6681 1.99843 26.5472 2.01308C26.4264 2.02585 26.3092 2.03511 26.1755 2.03511C25.9961 2.03511 25.7891 2.02046 25.5182 1.98202C24.6888 1.8612 23.9307 1.6744 23.3356 1.49124C23.039 1.40147 22.7826 1.31183 22.5811 1.23483C22.4805 1.1964 22.3926 1.16159 22.323 1.13229C22.2516 1.103 22.1984 1.07558 22.1674 1.06093L22.1692 1.0628C22.0777 1.01522 21.9898 0.989561 21.9111 0.974912C21.8323 0.956514 21.7628 0.952881 21.7024 0.952881C21.576 0.952881 21.4863 0.971162 21.4149 0.989561C21.3435 1.00796 21.2886 1.02987 21.2391 1.05003C21.1438 1.08847 21.0706 1.12878 20.9974 1.17272C20.8636 1.25335 20.7356 1.343 20.6 1.44741C20.3637 1.63058 20.1038 1.85757 19.8272 2.12487C19.4134 2.52401 18.9702 3.00741 18.5675 3.53476C18.366 3.79655 18.1775 4.07124 18.0072 4.35507C17.8369 4.6389 17.6868 4.92999 17.5677 5.23585C16.9854 6.75015 16.6009 8.14538 16.3629 9.43269C16.1231 10.7199 16.0315 11.8991 16.0315 12.9812C16.0315 14.7518 16.2787 16.2533 16.5168 17.5223C16.5168 17.5827 16.5187 17.6394 16.5223 17.6999C16.5297 17.819 16.5425 17.9417 16.5552 18.0698C16.5754 18.2602 16.5973 18.4561 16.6138 18.6209C16.623 18.7033 16.6304 18.7765 16.6359 18.8333C16.6377 18.8608 16.6395 18.8864 16.6395 18.9047L16.6414 18.923V18.9285V18.9304V19.0384L16.8739 20.073C16.5388 20.4392 16.2495 20.8493 16.0243 21.2998C15.7093 21.926 15.5226 22.6328 15.5226 23.3799C15.5226 23.7095 15.561 24.0501 15.6379 24.3887C15.8211 25.2072 16.0646 25.9213 16.3557 26.5439C16.7915 27.4796 17.3445 28.2066 17.956 28.7522C18.4302 29.177 18.9374 29.4865 19.4391 29.7154C19.8822 30.9276 20.329 31.9493 20.7995 32.8264C21.2683 33.6998 21.7627 34.4267 22.3047 35.0383C22.4879 35.897 22.6306 36.7394 22.6325 37.7098C22.6325 38.0394 22.6142 38.3836 22.5758 38.7498C22.5391 39.1014 22.4622 39.4054 22.3505 39.6801C22.1839 40.0902 21.9404 40.4399 21.609 40.7714C21.2775 41.0973 20.8545 41.4032 20.3547 41.687C19.8475 41.9745 19.2597 42.2437 18.6207 42.5001C17.5 42.9542 16.222 43.3826 14.9274 43.9008C13.957 44.2872 12.9736 44.7285 12.0361 45.2796C11.333 45.6934 10.6573 46.1732 10.0348 46.7426C9.10282 47.5959 8.29891 48.6597 7.74415 49.9744C7.18751 51.2909 6.87802 52.8491 6.87989 54.6912C6.87989 54.9512 6.93485 55.1984 7.0245 55.4273C7.10688 55.6415 7.22231 55.8374 7.35778 56.0242C7.61419 56.3721 7.94372 56.6834 8.34837 56.9837C9.05888 57.5075 10.0018 57.9981 11.2231 58.4596C13.0541 59.15 15.5078 59.7707 18.681 60.221C21.8525 60.6715 25.7434 60.9535 30.4309 60.9535C34.4977 60.9535 37.9621 60.7429 40.8789 60.3932C43.0652 60.1295 44.9457 59.789 46.5406 59.399C47.7381 59.1079 48.7763 58.7874 49.6662 58.4505C50.3328 58.1978 50.9187 57.9341 51.4277 57.6631C51.8085 57.4599 52.1454 57.251 52.4439 57.0368C52.8908 56.7127 53.2496 56.3795 53.5224 56.0004C53.6597 55.8119 53.7714 55.6104 53.8538 55.3907C53.9362 55.1746 53.9856 54.9366 53.9856 54.6912C53.9856 53.431 53.841 52.3048 53.5718 51.2959ZM38.7843 42.917L32.9066 52.0961L32.2511 47.5899L33.9191 45.8247L32.8388 44.0229L37.3981 41.6261C37.5244 41.7891 37.6581 41.9428 37.7991 42.0893C38.1013 42.3988 38.4327 42.6716 38.7843 42.917ZM21.8873 11.1665C27.1864 12.342 37.5483 10.0953 37.5483 10.0953C37.5483 10.0953 37.66 12.6642 39.427 15.0226C40.1228 15.9491 40.6959 17.3976 41.1262 18.7745C41.0109 18.5603 40.7398 18.4797 40.3352 18.4285C39.427 18.3058 38.0774 18.227 36.5577 18.3003C32.0424 18.5219 32.3774 18.932 30.605 18.932C28.8325 18.932 29.1675 18.5219 24.6522 18.3003C23.1324 18.227 21.783 18.3058 20.8729 18.4285C20.4005 18.4907 20.1038 18.586 20.0361 18.9009C20.0123 19.018 19.9756 19.1499 19.8127 19.214C20.3126 17.3464 21.7042 14.9604 21.8873 11.1665ZM40.2674 21.6328C40.2674 21.6585 40.2492 24.2476 38.4876 25.1319C37.8889 25.4341 37.1381 25.6007 36.3746 25.6026C35.5689 25.6026 34.8329 25.4194 34.245 25.0733C33.595 24.6925 33.1574 24.1267 32.9432 23.396C32.8919 23.2258 32.8462 23.0555 32.7986 22.8906C32.6594 22.3871 32.284 20.9882 33.0806 20.373C33.5933 19.9719 35.1844 19.7193 36.7097 19.7193C38.0958 19.7193 39.5095 19.9078 39.9232 20.34C40.1961 20.6257 40.3022 21.1348 40.2674 21.6328ZM28.4113 22.8907C28.3638 23.0555 28.3161 23.2258 28.2667 23.3962C28.0525 24.1267 27.6148 24.6926 26.9666 25.0735C26.3771 25.4195 25.6409 25.6027 24.8352 25.6027C24.0716 25.6008 23.3228 25.4342 22.7222 25.1321C20.9608 24.2476 20.9443 21.6585 20.9424 21.633C20.9076 21.1349 21.0138 20.6258 21.2848 20.3403C21.7005 19.9081 23.114 19.7195 24.5002 19.7195C26.0236 19.7195 27.6167 19.9722 28.1311 20.3732C28.9259 20.9883 28.5506 22.3872 28.4113 22.8907ZM22.5282 31.8978C22.0686 31.0408 21.6108 29.9752 21.1402 28.6458L20.9846 28.2119L20.5524 28.0526C20.252 27.9427 19.9591 27.8 19.679 27.6113C19.2561 27.3275 18.855 26.9393 18.487 26.3607C18.1189 25.782 17.7893 25.0056 17.5513 23.9564C17.5055 23.7569 17.4872 23.5664 17.4872 23.3796C17.4872 22.9585 17.5879 22.5593 17.7802 22.1785C17.9377 21.8617 18.1574 21.5632 18.4247 21.2922C18.8752 21.9734 19.2487 22.5135 19.3843 22.649C19.6424 22.9071 19.7706 22.6581 19.7908 22.1747C19.95 23.2496 20.461 25.0239 22.1108 25.9009C24.4857 27.1626 28.0306 26.6901 29.2335 23.8813C29.7774 22.6142 29.7847 21.3764 30.605 21.3764C31.4234 21.3764 31.4327 22.6143 31.9764 23.8813C33.1812 26.6902 36.7261 27.1626 39.1011 25.9009C41.4741 24.6393 41.4906 21.5155 41.4906 21.2958C41.4906 21.1823 41.5987 21.0962 41.7524 21.0797C41.9539 21.9275 42.0582 22.5025 42.0582 22.5025C42.0582 22.5025 42.2853 22.0685 42.6258 21.4899C42.829 21.7279 42.9975 21.9843 43.122 22.2516C43.2886 22.6105 43.3784 22.9859 43.3784 23.3759C43.3784 23.5644 43.3583 23.7567 43.3124 23.9546C43.1549 24.6541 42.9554 25.2326 42.732 25.7124C42.3951 26.4301 42.0068 26.9246 41.6004 27.2871C41.1958 27.6497 40.7636 27.8858 40.315 28.0525L39.8811 28.21L39.7272 28.6458C39.2566 29.9752 38.797 31.0426 38.3375 31.8978C37.876 32.7548 37.4183 33.3993 36.9422 33.901L36.7537 34.1005L36.6951 34.3661C36.4826 35.3457 36.2703 36.4279 36.2703 37.7096C36.2703 38.1051 36.2904 38.5171 36.3344 38.951C36.3875 39.4601 36.5047 39.938 36.6787 40.3775C36.6861 40.3976 36.697 40.4195 36.7043 40.4379L30.7406 43.5746L24.1305 40.5075C24.3337 40.0314 24.471 39.5114 24.5296 38.9512C24.5754 38.5172 24.5937 38.1052 24.5937 37.7097C24.5956 36.4279 24.3831 35.3439 24.1689 34.3643L24.1103 34.0988L23.9218 33.901C23.4474 33.3955 22.9878 32.7546 22.5282 31.8978ZM22.4751 42.6241C22.8194 42.3476 23.1361 42.0381 23.4162 41.6902L28.4572 44.0303L27.3804 45.8248L29.0467 47.59L28.4315 51.8325L22.0008 42.9721C22.1638 42.8602 22.3231 42.7449 22.4751 42.6241ZM52.021 54.6833C52.0191 54.6944 52.0063 54.7309 51.9715 54.7895C51.9056 54.9031 51.7518 55.0861 51.4918 55.295C51.2665 55.4762 50.9625 55.6794 50.5799 55.8883C49.908 56.2564 48.9979 56.639 47.8443 57.0016C46.1122 57.5472 43.8251 58.0452 40.9394 58.4078C38.0536 58.7667 34.5692 58.9901 30.4309 58.9901C26.4356 58.9901 23.0481 58.7814 20.221 58.4426C18.1006 58.1881 16.2952 57.8585 14.79 57.4923C13.6585 57.2159 12.6953 56.9174 11.8952 56.6134C11.2927 56.3863 10.7819 56.1557 10.3626 55.9305C10.0476 55.7619 9.78216 55.5954 9.56606 55.4416C9.2438 55.2108 9.03872 55.0002 8.93618 54.8556C8.88485 54.786 8.85931 54.731 8.85017 54.7055C8.84466 54.6945 8.84278 54.6872 8.84278 54.6835C8.84278 53.5848 8.96735 52.6437 9.18333 51.827C9.37188 51.1129 9.63192 50.4921 9.94868 49.9429C10.5017 48.9816 11.2286 48.2271 12.0929 47.5917C12.7374 47.1139 13.4607 46.7055 14.226 46.3411C15.0848 45.9328 15.9966 45.5813 16.9122 45.2425V47.22H17.5988H18.2854V44.7353C19.1607 44.4075 20.0139 44.0706 20.8086 43.6678L30.9691 57.6662L39.846 43.8069C39.8734 43.849 39.901 43.8912 39.9267 43.9315C40.2965 44.5266 40.5547 45.1748 40.7268 45.9091C40.8971 46.6415 40.9758 47.4618 40.9758 48.3755C40.9758 50.4923 40.9758 52.3361 40.9758 53.5776H37.7863V54.9526H45.6379V53.5776H42.4482C42.4482 52.3361 42.4482 50.4923 42.4482 48.3755C42.4482 47.0444 42.2962 45.8322 41.919 44.7262C41.886 44.6309 41.8512 44.5357 41.8145 44.4423C42.8875 44.8653 44.0099 45.2461 45.0977 45.6783C46.0297 46.0464 46.9342 46.4492 47.7564 46.9271C48.3753 47.286 48.9484 47.6888 49.4575 48.1465C50.2211 48.8405 50.8472 49.6589 51.2977 50.7081C51.7463 51.7555 52.021 53.0446 52.021 54.6833Z" fill="black"/>
</g>
<defs>
<clipPath id="clip0_121_2">
<rect width="60" height="60" fill="white" transform="translate(0.432617 0.952881)"/>
</clipPath>
</defs>
</svg>
